<svg id="visual" viewBox="0 0 900 600" width="900" height="600" xmlns="http://www.w3.org/2000/svg" xmlns:xlink="http://www.w3.org/1999/xlink" version="1.1"><g stroke-width="1" stroke-linejoin="bevel"><path d="M413 280.9L339 267.1L414 323.9Z" fill="#246688" stroke="#246688"></path><path d="M339 267.1L262 361.9L414 323.9Z" fill="#246688" stroke="#246688"></path><path d="M527 300.1L478 199.1L413 280.9Z" fill="#205a7a" stroke="#205a7a"></path><path d="M413 280.9L478 199.1L339 267.1Z" fill="#00101c" stroke="#00101c"></path><path d="M527 332.9L527 300.1L414 323.9Z" fill="#246688" stroke="#246688"></path><path d="M414 323.9L527 300.1L413 280.9Z" fill="#19435d" stroke="#19435d"></path><path d="M520 438.6L527 332.9L414 323.9Z" fill="#246688" stroke="#246688"></path><path d="M339 267.1L211 306.1L262 361.9Z" fill="#297ea6" stroke="#297ea6"></path><path d="M205 232.1L211 306.1L339 267.1Z" fill="#277297" stroke="#277297"></path><path d="M535 160.4L478 183.4L478 199.1Z" fill="#081a28" stroke="#081a28"></path><path d="M478 199.1L478 183.4L339 267.1Z" fill="#0c2435" stroke="#0c2435"></path><path d="M240 464.3L306 471.6L262 361.9Z" fill="#1d4e6b" stroke="#1d4e6b"></path><path d="M262 361.9L306 471.6L414 323.9Z" fill="#00101c" stroke="#00101c"></path><path d="M305 135.4L205 232.1L339 267.1Z" fill="#00101c" stroke="#00101c"></path><path d="M339 113.4L305 135.4L339 267.1Z" fill="#0c2435" stroke="#0c2435"></path><path d="M306 471.6L388 487.6L414 323.9Z" fill="#0c2435" stroke="#0c2435"></path><path d="M478 183.4L339 113.4L339 267.1Z" fill="#15384f" stroke="#15384f"></path><path d="M400 600L400 495.3L388 487.6Z" fill="#205a7a" stroke="#205a7a"></path><path d="M388 487.6L520 438.6L414 323.9Z" fill="#112e42" stroke="#112e42"></path><path d="M400 495.3L520 438.6L388 487.6Z" fill="#297ea6" stroke="#297ea6"></path><path d="M400 600L410 501.3L400 495.3Z" fill="#15384f" stroke="#15384f"></path><path d="M400 495.3L410 501.3L520 438.6Z" fill="#277297" stroke="#277297"></path><path d="M149 387.6L226 451.6L262 361.9Z" fill="#081a28" stroke="#081a28"></path><path d="M306 471.6L400 600L388 487.6Z" fill="#112e42" stroke="#112e42"></path><path d="M226 451.6L240 464.3L262 361.9Z" fill="#297ea6" stroke="#297ea6"></path><path d="M205 232.1L163 292.9L211 306.1Z" fill="#297ea6" stroke="#297ea6"></path><path d="M211 306.1L149 387.6L262 361.9Z" fill="#0c2435" stroke="#0c2435"></path><path d="M309 79.7L272 114.7L305 135.4Z" fill="#205a7a" stroke="#205a7a"></path><path d="M305 135.4L272 114.7L205 232.1Z" fill="#297ea6" stroke="#297ea6"></path><path d="M205 232.1L121 274.1L163 292.9Z" fill="#1d4e6b" stroke="#1d4e6b"></path><path d="M527 300.1L535 160.4L478 199.1Z" fill="#0c2435" stroke="#0c2435"></path><path d="M478 183.4L410 68.7L339 113.4Z" fill="#19435d" stroke="#19435d"></path><path d="M571 147.4L535 160.4L527 300.1Z" fill="#1d4e6b" stroke="#1d4e6b"></path><path d="M136 499.3L236 482.6L226 451.6Z" fill="#277297" stroke="#277297"></path><path d="M226 451.6L236 482.6L240 464.3Z" fill="#297ea6" stroke="#297ea6"></path><path d="M240 464.3L236 482.6L306 471.6Z" fill="#277297" stroke="#277297"></path><path d="M520 438.6L594 360.9L527 332.9Z" fill="#1d4e6b" stroke="#1d4e6b"></path><path d="M527 332.9L594 360.9L527 300.1Z" fill="#15384f" stroke="#15384f"></path><path d="M339 113.4L309 79.7L305 135.4Z" fill="#297ea6" stroke="#297ea6"></path><path d="M410 68.7L309 79.7L339 113.4Z" fill="#00101c" stroke="#00101c"></path><path d="M163 292.9L149 387.6L211 306.1Z" fill="#112e42" stroke="#112e42"></path><path d="M535 160.4L410 68.7L478 183.4Z" fill="#15384f" stroke="#15384f"></path><path d="M170 142.4L121 274.1L205 232.1Z" fill="#112e42" stroke="#112e42"></path><path d="M163 292.9L62 329.9L149 387.6Z" fill="#081a28" stroke="#081a28"></path><path d="M642 307.1L571 147.4L527 300.1Z" fill="#246688" stroke="#246688"></path><path d="M535 160.4L481 0L410 68.7Z" fill="#297ea6" stroke="#297ea6"></path><path d="M571 147.4L568 138.7L535 160.4Z" fill="#00101c" stroke="#00101c"></path><path d="M171 26.7L170 142.4L272 114.7Z" fill="#19435d" stroke="#19435d"></path><path d="M272 114.7L170 142.4L205 232.1Z" fill="#00101c" stroke="#00101c"></path><path d="M594 360.9L642 307.1L527 300.1Z" fill="#246688" stroke="#246688"></path><path d="M571 147.4L659 134.7L568 138.7Z" fill="#19435d" stroke="#19435d"></path><path d="M410 501.3L553 527.3L520 438.6Z" fill="#00101c" stroke="#00101c"></path><path d="M520 438.6L658 436.6L594 360.9Z" fill="#277297" stroke="#277297"></path><path d="M594 360.9L658 436.6L642 307.1Z" fill="#246688" stroke="#246688"></path><path d="M521 600L553 527.3L410 501.3Z" fill="#297ea6" stroke="#297ea6"></path><path d="M255 600L400 600L306 471.6Z" fill="#19435d" stroke="#19435d"></path><path d="M400 600L405 600L410 501.3Z" fill="#19435d" stroke="#19435d"></path><path d="M149 387.6L136 499.3L226 451.6Z" fill="#205a7a" stroke="#205a7a"></path><path d="M236 482.6L255 600L306 471.6Z" fill="#0c2435" stroke="#0c2435"></path><path d="M33 515.3L136 499.3L0 462.6Z" fill="#081a28" stroke="#081a28"></path><path d="M420 0L411 0L410 68.7Z" fill="#15384f" stroke="#15384f"></path><path d="M410 68.7L411 0L309 79.7Z" fill="#246688" stroke="#246688"></path><path d="M309 79.7L286 0L272 114.7Z" fill="#297ea6" stroke="#297ea6"></path><path d="M481 0L420 0L410 68.7Z" fill="#15384f" stroke="#15384f"></path><path d="M0 280.1L62 329.9L121 274.1Z" fill="#277297" stroke="#277297"></path><path d="M121 274.1L62 329.9L163 292.9Z" fill="#277297" stroke="#277297"></path><path d="M411 0L286 0L309 79.7Z" fill="#205a7a" stroke="#205a7a"></path><path d="M553 527.3L658 436.6L520 438.6Z" fill="#205a7a" stroke="#205a7a"></path><path d="M153 600L255 600L236 482.6Z" fill="#297ea6" stroke="#297ea6"></path><path d="M568 138.7L481 0L535 160.4Z" fill="#297ea6" stroke="#297ea6"></path><path d="M405 600L521 600L410 501.3Z" fill="#15384f" stroke="#15384f"></path><path d="M553 527.3L632 561.3L658 436.6Z" fill="#19435d" stroke="#19435d"></path><path d="M709 188.4L571 147.4L642 307.1Z" fill="#205a7a" stroke="#205a7a"></path><path d="M709 188.4L659 134.7L571 147.4Z" fill="#205a7a" stroke="#205a7a"></path><path d="M568 138.7L669 0L481 0Z" fill="#205a7a" stroke="#205a7a"></path><path d="M146 37.7L62 174.4L170 142.4Z" fill="#00101c" stroke="#00101c"></path><path d="M170 142.4L62 174.4L121 274.1Z" fill="#112e42" stroke="#112e42"></path><path d="M286 0L171 26.7L272 114.7Z" fill="#112e42" stroke="#112e42"></path><path d="M171 26.7L146 37.7L170 142.4Z" fill="#246688" stroke="#246688"></path><path d="M709 188.4L661 106.7L659 134.7Z" fill="#1d4e6b" stroke="#1d4e6b"></path><path d="M659 134.7L661 106.7L568 138.7Z" fill="#15384f" stroke="#15384f"></path><path d="M761 272.1L709 188.4L642 307.1Z" fill="#1d4e6b" stroke="#1d4e6b"></path><path d="M608 600L632 561.3L553 527.3Z" fill="#112e42" stroke="#112e42"></path><path d="M107 600L153 600L136 499.3Z" fill="#00101c" stroke="#00101c"></path><path d="M136 499.3L153 600L236 482.6Z" fill="#0c2435" stroke="#0c2435"></path><path d="M62 174.4L0 280.1L121 274.1Z" fill="#297ea6" stroke="#297ea6"></path><path d="M0 462.6L136 499.3L149 387.6Z" fill="#081a28" stroke="#081a28"></path><path d="M0 280.1L0 351.9L62 329.9Z" fill="#246688" stroke="#246688"></path><path d="M286 0L144 0L171 26.7Z" fill="#00101c" stroke="#00101c"></path><path d="M171 26.7L144 0L146 37.7Z" fill="#277297" stroke="#277297"></path><path d="M0 62.7L0 132.4L62 174.4Z" fill="#00101c" stroke="#00101c"></path><path d="M62 174.4L0 132.4L0 280.1Z" fill="#1d4e6b" stroke="#1d4e6b"></path><path d="M521 600L608 600L553 527.3Z" fill="#246688" stroke="#246688"></path><path d="M774 388.9L752 372.6L658 436.6Z" fill="#081a28" stroke="#081a28"></path><path d="M658 436.6L752 372.6L642 307.1Z" fill="#246688" stroke="#246688"></path><path d="M674 548.3L658 436.6L632 561.3Z" fill="#246688" stroke="#246688"></path><path d="M660 600L674 548.3L632 561.3Z" fill="#246688" stroke="#246688"></path><path d="M752 372.6L761 272.1L642 307.1Z" fill="#205a7a" stroke="#205a7a"></path><path d="M752 0L669 0L661 106.7Z" fill="#297ea6" stroke="#297ea6"></path><path d="M33 515.3L107 600L136 499.3Z" fill="#297ea6" stroke="#297ea6"></path><path d="M0 462.6L149 387.6L62 329.9Z" fill="#205a7a" stroke="#205a7a"></path><path d="M0 351.9L0 462.6L62 329.9Z" fill="#0c2435" stroke="#0c2435"></path><path d="M0 62.7L62 174.4L146 37.7Z" fill="#297ea6" stroke="#297ea6"></path><path d="M763 545.3L774 388.9L658 436.6Z" fill="#19435d" stroke="#19435d"></path><path d="M752 372.6L799 282.9L761 272.1Z" fill="#1d4e6b" stroke="#1d4e6b"></path><path d="M608 600L660 600L632 561.3Z" fill="#081a28" stroke="#081a28"></path><path d="M674 548.3L763 545.3L658 436.6Z" fill="#081a28" stroke="#081a28"></path><path d="M795 156.4L661 106.7L709 188.4Z" fill="#081a28" stroke="#081a28"></path><path d="M661 106.7L669 0L568 138.7Z" fill="#277297" stroke="#277297"></path><path d="M0 462.6L0 513.3L33 515.3Z" fill="#112e42" stroke="#112e42"></path><path d="M33 515.3L0 600L107 600Z" fill="#112e42" stroke="#112e42"></path><path d="M774 388.9L799 282.9L752 372.6Z" fill="#15384f" stroke="#15384f"></path><path d="M761 272.1L795 156.4L709 188.4Z" fill="#0c2435" stroke="#0c2435"></path><path d="M144 0L51 0L146 37.7Z" fill="#0c2435" stroke="#0c2435"></path><path d="M51 0L0 62.7L146 37.7Z" fill="#297ea6" stroke="#297ea6"></path><path d="M799 282.9L795 156.4L761 272.1Z" fill="#0c2435" stroke="#0c2435"></path><path d="M660 600L763 545.3L674 548.3Z" fill="#00101c" stroke="#00101c"></path><path d="M774 388.9L868 294.1L799 282.9Z" fill="#00101c" stroke="#00101c"></path><path d="M0 513.3L0 600L33 515.3Z" fill="#00101c" stroke="#00101c"></path><path d="M51 0L0 0L0 62.7Z" fill="#297ea6" stroke="#297ea6"></path><path d="M763 545.3L832 458.6L774 388.9Z" fill="#112e42" stroke="#112e42"></path><path d="M868 294.1L840 138.7L795 156.4Z" fill="#205a7a" stroke="#205a7a"></path><path d="M795 156.4L752 0L661 106.7Z" fill="#15384f" stroke="#15384f"></path><path d="M795 156.4L759 0L752 0Z" fill="#112e42" stroke="#112e42"></path><path d="M868 294.1L795 156.4L799 282.9Z" fill="#15384f" stroke="#15384f"></path><path d="M795 156.4L840 138.7L759 0Z" fill="#00101c" stroke="#00101c"></path><path d="M900 388.6L868 294.1L774 388.9Z" fill="#15384f" stroke="#15384f"></path><path d="M660 600L804 600L763 545.3Z" fill="#081a28" stroke="#081a28"></path><path d="M763 545.3L900 496.3L832 458.6Z" fill="#0c2435" stroke="#0c2435"></path><path d="M900 388.6L900 295.9L868 294.1Z" fill="#1d4e6b" stroke="#1d4e6b"></path><path d="M900 388.6L774 388.9L832 458.6Z" fill="#1d4e6b" stroke="#1d4e6b"></path><path d="M868 294.1L900 144.7L840 138.7Z" fill="#19435d" stroke="#19435d"></path><path d="M900 295.9L900 295.1L868 294.1Z" fill="#081a28" stroke="#081a28"></path><path d="M900 496.3L900 388.6L832 458.6Z" fill="#277297" stroke="#277297"></path><path d="M900 295.1L900 144.7L868 294.1Z" fill="#297ea6" stroke="#297ea6"></path><path d="M840 138.7L900 0L759 0Z" fill="#00101c" stroke="#00101c"></path><path d="M804 600L900 496.3L763 545.3Z" fill="#112e42" stroke="#112e42"></path><path d="M900 144.7L900 109.4L840 138.7Z" fill="#1d4e6b" stroke="#1d4e6b"></path><path d="M804 600L900 600L900 496.3Z" fill="#081a28" stroke="#081a28"></path><path d="M900 109.4L900 0L840 138.7Z" fill="#297ea6" stroke="#297ea6"></path></g></svg>